<svg version="1.1" xmlns="http://www.w3.org/2000/svg" viewBox="0 0 240.8977762133735 85.69102877451587" width="481.795552426747" height="171.38205754903174">
  <!-- svg-source:excalidraw -->
  
  <defs>
    <style>
      @font-face {
        font-family: "Virgil";
        src: url("https://excalidraw.com/Virgil.woff2");
      }
      @font-face {
        font-family: "Cascadia";
        src: url("https://excalidraw.com/Cascadia.woff2");
      }
    </style>
  </defs>
  <g stroke-linecap="round" transform="translate(10 10.722891736602463) rotate(0 22.111984252929688 32.32707214355469)"><path d="M-0.95 0.5 C8.23 0.69, 18.97 1.7, 43.44 1.19 M0.18 0.24 C13.72 0, 25.88 -0.15, 44.47 0.79 M42.24 -0.18 C43.41 17.83, 45.35 39.91, 43.79 64.53 M43.93 0.11 C44.1 20.7, 43.32 40.03, 44.87 64.88 M45.35 65.21 C26.89 63.32, 14.09 65.13, 1.67 63.99 M44.61 65.04 C30.67 63.49, 17.69 64.34, -0.69 65.61 M0.81 66.62 C1.36 43.36, 1.53 22.56, -0.41 0.31 M0.62 65.19 C-0.04 48.83, 0.72 33.16, 0.02 0.51" stroke="#000000" stroke-width="1" fill="none"></path></g><g stroke-linecap="round" transform="translate(68.9947123270166 10.703519919403163) rotate(0 22.111984252929688 32.32707214355469)"><path d="M-1.92 -1.06 C11.77 1.11, 25.15 2.13, 45.54 -1.71 M-0.77 0.85 C14.14 -0.54, 27.57 1.13, 43.92 0.54 M43.38 0.92 C44.18 15.09, 44.36 32.86, 43.02 64.1 M45 -0.15 C43.05 15, 44.12 28.65, 44.81 65.41 M43.84 64.06 C28.22 64.2, 10.67 64.84, -1.61 65.98 M43.29 64.67 C29.43 64.55, 15.3 64.49, -0.24 64.22 M0.01 64.17 C-0.53 43.81, -0.32 19.22, -1.7 -1.47 M-0.55 65.51 C0.41 48.57, 0.43 33.22, -0.05 0.56" stroke="#000000" stroke-width="1" fill="none"></path></g><g stroke-linecap="round" transform="translate(126.95866800991655 10) rotate(0 22.111984252929688 32.32707214355469)"><path d="M1.13 1.16 L42.46 0.41 L42.55 64.71 L0.21 64.32" stroke="none" stroke-width="0" fill="#000"></path><path d="M-1.64 -0.06 C14.92 -1.8, 31.59 0.66, 42.83 1.19 M0.22 0.04 C13.36 1.33, 27.86 0.7, 44.61 -0.64 M45.47 -0.96 C44.27 20.81, 44.74 43.45, 44.71 66.37 M43.66 0.1 C44.97 20.33, 44.99 40.84, 45.22 63.75 M42.54 63.45 C29.35 63.68, 17.2 65.79, -0.97 66.17 M44.69 64.98 C28.86 64.02, 14.2 65.16, 0.09 65.45 M-1.65 62.98 C-0.45 43.54, -0.57 24.37, -0.98 -1.4 M0.37 64.13 C1.21 45.55, 1.36 28.69, -0.43 -0.03" stroke="#000000" stroke-width="1" fill="none"></path></g><g stroke-linecap="round" transform="translate(186.67380770751413 11.036884487406496) rotate(0 22.111984252929688 32.32707214355469)"><path d="M0.92 0.65 C15.7 -1.71, 32.8 0.56, 44.4 1.6 M-0.83 -0.84 C13.26 -0.46, 26.54 -0.3, 43.73 -0.7 M44.97 -1.05 C45 16.69, 45.29 37.87, 43.37 64.59 M44.43 -0.84 C44.63 23.14, 44.43 45.77, 43.35 65.55 M43.07 65.05 C31.3 64.52, 14.01 64.36, -1.74 63.39 M43.53 64.8 C33.55 65.02, 23.83 64.58, 0.17 65.64 M1.29 63.5 C-0.78 44.64, -2.32 27.09, -0.27 -1.12 M-0.54 65.57 C-0.13 47.3, 1.35 29.16, -0.26 -0.32" stroke="#000000" stroke-width="1" fill="none"></path></g><g stroke-linecap="round"><g transform="translate(18.624419056038164 24.9876504913303) rotate(0 3.323244578690577 18.33132706110132)"><path d="M-0.87 0.1 C0.46 6.27, 6.07 31.51, 7.52 37.55 M0.88 -0.89 C2.17 4.89, 5.89 29.43, 7.03 35.81" stroke="#000000" stroke-width="1" fill="none"></path></g></g><g stroke-linecap="round"><g transform="translate(23.085046055200564 66.6789920054743) rotate(0 3.9054702831420514 -16.975662657030497)"><path d="M-0.02 -0.42 C1.44 -5.87, 7.9 -28.06, 9.3 -33.53 M-1.48 -1.69 C-0.16 -6.84, 7.3 -26.31, 8.81 -31.92" stroke="#000000" stroke-width="1" fill="none"></path></g></g><g stroke-linecap="round"><g transform="translate(32.41790155815977 32.85198518047784) rotate(0 2.3602128804822655 15.311612891162241)"><path d="M0.22 0.06 C1.16 5.38, 4.8 26.46, 5.84 31.58 M-1.12 -0.95 C-0.33 4.05, 3.84 24.34, 5.06 29.83" stroke="#000000" stroke-width="1" fill="none"></path></g></g><g stroke-linecap="round"><g transform="translate(38.497242197400624 64.84934472302803) rotate(0 3.3585382653666045 -20.395452971205657)"><path d="M0.51 -0.21 C1.75 -6.7, 6.32 -32.22, 7.39 -38.99 M-0.68 -1.37 C0.37 -8.17, 4.51 -34.16, 6.18 -40.58" stroke="#000000" stroke-width="1" fill="none"></path></g></g><g stroke-linecap="round"><g transform="translate(79.98987290174637 18.662707370116266) rotate(0 1.4943721768844398 22.905443497751435)"><path d="M-0.43 -0.16 C-0.1 7.82, 0.72 39.17, 1.2 47.1 M1.54 -1.29 C2.31 6.41, 3.37 37.47, 3.42 45.27" stroke="#000000" stroke-width="1" fill="none"></path></g></g><g stroke-linecap="round"><g transform="translate(84.93035234810793 65.8300178128886) rotate(0 8.162478394457423 -13.251484163944298)"><path d="M0.55 -0.71 C3.27 -5.52, 14.37 -23.77, 16.94 -28.03 M-0.61 1.53 C1.9 -3.23, 12.88 -22.01, 16.06 -26.95" stroke="#000000" stroke-width="1" fill="none"></path></g></g><g stroke-linecap="round"><g transform="translate(82.63951149855245 18.302580311075644) rotate(0 9.776201490786207 10.931528453034915)"><path d="M-0.7 0.37 C2.82 3.84, 16.94 17.46, 20.25 20.7 M1.14 -0.48 C4.62 3.21, 16.79 18.8, 19.62 22.34" stroke="#000000" stroke-width="1" fill="none"></path></g></g><g stroke-linecap="round"><g transform="translate(197.86195110141455 19.1831377874328) rotate(0 1.5024704127598056 23.133790554855537)"><path d="M1.08 -0.26 C1.51 7.87, 2.57 39.93, 2.81 47.71 M0.2 -1.44 C0.5 6.48, 1.92 38.01, 2.21 46.19" stroke="#000000" stroke-width="1" fill="none"></path></g></g><g stroke-linecap="round"><g transform="translate(202.802430547776 66.3504482302051) rotate(0 8.848813746832604 -14.020962407943486)"><path d="M-0.26 0.67 C2.91 -3.98, 15.14 -22, 17.96 -26.78 M1.81 -0.03 C5.02 -4.53, 15.28 -24.19, 17.61 -28.71" stroke="#000000" stroke-width="1" fill="none"></path></g></g><g stroke-linecap="round"><g transform="translate(200.51158969822052 18.82301072839212) rotate(0 9.78745809705299 11.278556223837299)"><path d="M0.67 1.15 C3.82 4.59, 17 16.99, 20.02 20.38 M-0.44 0.71 C2.49 4.37, 15.65 18.69, 19.27 21.84" stroke="#000000" stroke-width="1" fill="none"></path></g></g><g stroke-linecap="round"><g transform="translate(147.06130255883784 22.714877378971096) rotate(0 0.4943343642929108 20.359815695468285)"><path d="M-0.76 -0.37 C-0.65 6.61, 1.33 35.33, 1.75 42.33 M1.05 -1.61 C0.88 5.02, 0.71 33.97, 0.68 40.84" stroke="#fff" stroke-width="2" fill="none"></path></g></g></svg>