<svg version="1.1" xmlns="http://www.w3.org/2000/svg" viewBox="0 0 240.8977762133735 85.69102877451587" width="481.795552426747" height="171.38205754903174">
  <!-- svg-source:excalidraw -->
  
  <defs>
    <style>
      @font-face {
        font-family: "Virgil";
        src: url("https://excalidraw.com/Virgil.woff2");
      }
      @font-face {
        font-family: "Cascadia";
        src: url("https://excalidraw.com/Cascadia.woff2");
      }
    </style>
  </defs>
  <g stroke-linecap="round" transform="translate(10 10.722891736602463) rotate(0 22.111984252929688 32.32707214355469)"><path d="M-0.95 0.5 C8.23 0.69, 18.97 1.7, 43.44 1.19 M0.18 0.24 C13.72 0, 25.88 -0.15, 44.47 0.79 M42.24 -0.18 C43.41 17.83, 45.35 39.91, 43.79 64.53 M43.93 0.11 C44.1 20.7, 43.32 40.03, 44.87 64.88 M45.35 65.21 C26.89 63.32, 14.09 65.13, 1.67 63.99 M44.61 65.04 C30.67 63.49, 17.69 64.34, -0.69 65.61 M0.81 66.62 C1.36 43.36, 1.53 22.56, -0.41 0.31 M0.62 65.19 C-0.04 48.83, 0.72 33.16, 0.02 0.51" stroke="#000000" stroke-width="1" fill="none"></path></g><g stroke-linecap="round" transform="translate(68.9947123270166 10.703519919403163) rotate(0 22.111984252929688 32.32707214355469)"><path d="M-1.92 -1.06 C11.77 1.11, 25.15 2.13, 45.54 -1.71 M-0.77 0.85 C14.14 -0.54, 27.57 1.13, 43.92 0.54 M43.38 0.92 C44.18 15.09, 44.36 32.86, 43.02 64.1 M45 -0.15 C43.05 15, 44.12 28.65, 44.81 65.41 M43.84 64.06 C28.22 64.2, 10.67 64.84, -1.61 65.98 M43.29 64.67 C29.43 64.55, 15.3 64.49, -0.24 64.22 M0.01 64.17 C-0.53 43.81, -0.32 19.22, -1.7 -1.47 M-0.55 65.51 C0.41 48.57, 0.43 33.22, -0.05 0.56" stroke="#000000" stroke-width="1" fill="none"></path></g><g stroke-linecap="round" transform="translate(126.95866800991655 10) rotate(0 22.111984252929688 32.32707214355469)"><path d="M0 0 C0 0, 0 0, 0 0 M0 0 C0 0, 0 0, 0 0 M-0.81 6.52 C0.25 5.57, 1.48 3.88, 5.13 1.15 M0 6.17 C1.14 4.33, 2.33 2.78, 4.93 0.14 M-0.73 13.5 C2.23 8.83, 7.41 4.28, 10.22 -0.54 M-0.29 12.63 C1.99 9.22, 4.77 6.45, 10.55 0.47 M-0.33 18.25 C5.81 13.78, 9.49 9.98, 16.77 -0.93 M-0.74 19.19 C3.26 12.66, 9.06 8.24, 15.66 0.12 M1.31 25.8 C7.93 18.07, 14.41 11.09, 20.13 0.64 M-0.2 23.55 C5.32 18.67, 11.24 11.42, 20.63 0.5 M0.51 31.33 C7.28 22.86, 14.08 15.97, 25.23 1.23 M0.33 31.18 C5.46 23.82, 10.88 17.7, 27.1 0.03 M-1.42 36.42 C13.29 23.78, 24.57 7.97, 33.28 1.33 M-1.16 37.25 C9.64 25.73, 21.17 13.8, 30.93 -0.48 M0.37 43.02 C9.75 33.57, 16.21 23.08, 37.15 2 M-0.15 43.48 C14.99 27.1, 28.81 10.8, 36.48 0.69 M1.08 50.88 C8.72 36.51, 19.72 24.74, 43.42 -1.87 M0.09 48.75 C13.3 35.59, 26.43 19.4, 41.53 0.53 M-0.4 55.57 C12.01 43.2, 22.92 29.65, 46.51 1.18 M0.66 54.2 C11.39 42.18, 22.49 29.34, 46.34 1.2 M1.98 61.73 C16.13 43.72, 28 29.51, 46.08 9.19 M-0.5 61.65 C16.68 42.29, 32.04 24.62, 45.85 7.13 M0.11 67.56 C17.15 46.11, 34.38 24.96, 45.63 15.23 M0.82 65.16 C15.21 49.55, 28.43 32.71, 47.23 14.63 M6.5 66.32 C16.53 54.19, 28.91 39.65, 44.81 20.97 M6.82 65.68 C17.42 53.97, 27.42 40.79, 47.04 20.55 M13.2 64.91 C25.96 50.83, 36.71 35.77, 44.73 26.13 M11.46 66.77 C24.56 50.19, 36.49 35.23, 47.34 24.89 M15.59 65.74 C24.33 56.84, 32.84 47.99, 47.39 33.79 M17.16 65.58 C26.22 56.68, 32.83 46.04, 46.14 33.19 M24.01 64.55 C29.51 57.61, 37.48 49.27, 45.09 40.31 M23.26 65.8 C27.21 58.95, 32.95 53.01, 45.56 37.63 M29.72 63.66 C32.12 59.16, 36.83 54.49, 47.17 44.88 M28.88 66.02 C33.7 59.05, 40.01 52.01, 45.5 43.66 M32.41 65.21 C35.71 60.78, 43.52 57.21, 46.83 51.03 M33.31 66.11 C36.98 61.13, 40.92 55.63, 45.31 50.67 M38.36 64.77 C42.18 60.97, 44.01 59, 46.43 56.47 M38.75 65.49 C40.28 63.13, 42.33 61.14, 46.19 56.74 M-0.31 64.38 C-0.31 64.38, -0.31 64.38, -0.31 64.38 M-0.31 64.38 C-0.31 64.38, -0.31 64.38, -0.31 64.38 M6.88 64.65 C2.96 62.4, 1.17 59.99, 0.69 59.43 M5.8 64.64 C4.68 63.42, 3 61.93, 0.25 59.58 M12.15 65.27 C9.32 62.28, 5.86 59.95, 1.1 52.45 M11.7 65.39 C8.87 62.06, 3.45 58.42, -0.03 54.41 M18.08 64.26 C10.91 59.85, 5.77 51.47, 1.83 49.33 M18.09 63.9 C14.23 61.53, 10.03 58.27, 0.12 49.3 M22.62 64.55 C15.74 57.73, 4.88 49.41, -0.6 44.85 M23.89 65.13 C16.94 56.19, 7.25 50.32, 1.31 43.17 M31.6 66.28 C21.46 58.51, 15.87 48.77, 1.43 37.63 M31.03 64.68 C20.7 55.03, 9.49 47.74, 0.89 37.42 M34.95 62.95 C25.54 55.9, 18.2 47.47, 1.37 32.55 M36.41 63.93 C25.5 56.04, 15.07 45.58, 0.8 33.95 M42.18 64.17 C27.47 50.21, 12.11 35.73, -1.81 27.21 M42.06 63.97 C29.85 53.09, 16.86 41.18, 0.01 27.05 M47.06 62.91 C34.59 49.59, 20.58 39.79, -0.8 24.39 M46.78 61.95 C35.81 53.43, 26.63 45.48, 0.17 23.05 M44.94 58.67 C36.29 48.85, 26.87 40.93, -1.27 18.06 M46.29 57.38 C31.77 44.2, 17.55 33.24, -0.8 17.43 M44.51 51.35 C36.05 41.67, 23.92 30.74, 0.94 9.91 M45.89 51.13 C34.36 42.85, 22.26 31.77, 0.92 12.44 M45.22 46.71 C29.95 32.69, 10.82 15.3, -1.47 7.29 M46.74 46.01 C32.89 34.4, 19.31 22.33, 0.71 6.24 M47.11 39.41 C36.97 30.51, 23.73 20.79, -0.48 -0.23 M46.57 40.94 C29.16 26.87, 13.18 13.16, 1.1 0.51 M45.48 35.09 C32.28 26.91, 21.46 14.72, 0.22 -0.92 M45.24 36.14 C31.06 22.47, 15.62 9.89, 1.66 -2.44 M45.72 30.81 C33.54 19.32, 20.33 9.45, 9.04 -3.02 M46.42 30.74 C33.97 20.43, 21.17 7.92, 7.63 -2.67 M46.01 25.1 C37.15 19.42, 29.03 9.4, 12.6 -0.65 M45.16 25.87 C36.16 16.24, 27.18 8.42, 14.98 -3.47 M48.09 18.41 C35.79 13.37, 26.87 4.84, 19.65 -1.47 M45.57 20.34 C40.14 14.26, 34.03 10.78, 21.14 -1.77 M43.99 15.15 C39.36 11.85, 35.93 5.08, 27.96 -3.94 M46.42 13.72 C41.28 8.83, 34.09 3.96, 26.82 -2.39 M46.76 8.3 C42.18 5.65, 38.3 4.79, 31.27 -0.99 M46.68 9.93 C40.67 6.23, 36.85 1.76, 31.71 -2.36 M46.38 4.92 C44.66 2.8, 43.72 1.27, 38.51 -1.35 M46.39 4.85 C44.26 3.09, 42.7 1.12, 38.71 -2.64" stroke="#000" stroke-width="0.5" fill="none"></path><path d="M-1.64 -0.06 C14.92 -1.8, 31.59 0.66, 42.83 1.19 M0.22 0.04 C13.36 1.33, 27.86 0.7, 44.61 -0.64 M45.47 -0.96 C44.27 20.81, 44.74 43.45, 44.71 66.37 M43.66 0.1 C44.97 20.33, 44.99 40.84, 45.22 63.75 M42.54 63.45 C29.35 63.68, 17.2 65.79, -0.97 66.17 M44.69 64.98 C28.86 64.02, 14.2 65.16, 0.09 65.45 M-1.65 62.98 C-0.45 43.54, -0.57 24.37, -0.98 -1.4 M0.37 64.13 C1.21 45.55, 1.36 28.69, -0.43 -0.03" stroke="#000000" stroke-width="1" fill="none"></path></g><g stroke-linecap="round" transform="translate(186.67380770751413 11.036884487406496) rotate(0 22.111984252929688 32.32707214355469)"><path d="M0.92 0.65 C15.7 -1.71, 32.8 0.56, 44.4 1.6 M-0.83 -0.84 C13.26 -0.46, 26.54 -0.3, 43.73 -0.7 M44.97 -1.05 C45 16.69, 45.29 37.87, 43.37 64.59 M44.43 -0.84 C44.63 23.14, 44.43 45.77, 43.35 65.55 M43.07 65.05 C31.3 64.52, 14.01 64.36, -1.74 63.39 M43.53 64.8 C33.55 65.02, 23.83 64.58, 0.17 65.64 M1.29 63.5 C-0.78 44.64, -2.32 27.09, -0.27 -1.12 M-0.54 65.57 C-0.13 47.3, 1.35 29.16, -0.26 -0.32" stroke="#000000" stroke-width="1" fill="none"></path></g></svg>